Coordinates
version=1
nRows=4
nColumns=107
inDegrees=yes

Units are S.I. units (second, meters, Newtons, ...)
If the header above contains a line with 'inDegrees', this indicates whether rotational values are in degrees (yes) or radians (no).

endheader
time	sternoclavicular_r2	sternoclavicular_r3	unrotscap_r3	unrotscap_r2	acromioclavicular_r2	acromioclavicular_r3	acromioclavicular_r1	unrothum_r1	unrothum_r3	unrothum_r2	elv_angle	shoulder_elv	shoulder1_r2	shoulder_rot	elbow_flexion	pro_sup	deviation	flexion	proximal_distal_r1	proximal_distal_r3	cmc_flexion	cmc_abduction	mp_flexion	ip_flexion	mcp2_flexion	mcp2_abduction	pm2_flexion	md2_flexion	mcp3_flexion	mcp3_abduction	pm3_flexion	md3_flexion	mcp4_flexion	mcp4_abduction	pm4_flexion	md4_flexion	mcp5_flexion	mcp5_abduction	pm5_flexion	md5_flexion	bicpt_tx	bicpt_ty	bicpt_tz	bicpt2_tx	bicpt2_ty	bicpt2_tz	ptpt_tx	ptpt_ty	ptpt_tz	FCUpt_tx	FCUpt_ty	FCUpt_tz	EDCpt_tx	EDCpt_ty	EDCpt_tz	APLpt_tx	APLpt_ty	APLpt_tz	FPLpt_tx	FPLpt_ty	FPLpt_tz	FPLpt2_tx	FPLpt2_ty	FPLpt2_tz	PEC1pt2_tx	PEC1pt2_ty	PEC1pt2_tz	PEC1pt3_tx	PEC1pt3_ty	PEC1pt3_tz	PEC2pt2_tx	PEC2pt2_ty	PEC2pt2_tz	PEC2pt3_tx	PEC2pt3_ty	PEC2pt3_tz	PEC3pt2_tx	PEC3pt2_ty	PEC3pt2_tz	PEC3pt3_tx	PEC3pt3_ty	PEC3pt3_tz	DELT2pt2a_tx	DELT2pt2a_ty	DELT2pt2a_tz	DELT2pt2_tx	DELT2pt2_ty	DELT2pt2_tz	LAT1pt2_tx	LAT1pt2_ty	LAT1pt2_tz	LAT1pt3_tx	LAT1pt3_ty	LAT1pt3_tz	LAT2pt2_tx	LAT2pt2_ty	LAT2pt2_tz	LAT2pt3_tx	LAT2pt3_ty	LAT2pt3_tz	LAT3pt2_tx	LAT3pt2_ty	LAT3pt2_tz	LAT3pt3_tx	LAT3pt3_ty	LAT3pt3_tz
      0.00000000	     -0.31907843	      0.13514656	     -0.13514656	      0.31907843	     -0.06460689	      0.52213017	      0.23469392	     -0.23469392	     -0.52213017	      0.06460689	     99.42816553	     75.54465464	     -1.73534886	    -27.27571091	     31.31424542	     63.10289838	      0.27359609	     -0.35093348	      0.31003923	     -0.17546674	     26.73901690	    -18.89138518	    -22.19392615	     -0.83762838	     13.18361938	      8.79373706	     39.18071838	      2.55219756	     30.35745685	     -0.67139889	     15.73025522	     18.17267424	     30.77708414	     -4.56243035	     15.18016614	     22.92750970	     40.42711303	    -13.77983328	     -0.43354057	      5.08932436	      0.00093578	     -0.03118909	     -0.00487811	      0.01600703	     -0.01870667	     -0.00462958	      0.00288741	     -0.06791491	     -0.00513328	      0.01018858	     -0.18293869	     -0.00034945	     -0.00757233	      0.00240241	     -0.00016407	      0.00025592	      0.00010237	      0.00051184	      0.00032758	      0.00098273	      0.00055278	     -0.00000322	     -0.00027127	     -0.00032553	      0.00247619	      0.00868764	      0.00604358	     -0.00810007	      0.01955769	     -0.01855043	      0.00247619	      0.00868764	      0.00604358	      0.00054560	      0.01813073	     -0.00952703	      0.00392431	      0.00483109	      0.01590959	      0.00000000	      0.00763146	      0.00000000	     -0.00709281	     -0.03277801	     -0.00629164	      0.01762071	     -0.00066521	     -0.00621865	     -0.00088136	      0.01477319	     -0.00604358	      0.00243422	      0.02132040	     -0.01762710	     -0.00591767	      0.01280063	     -0.00541404	     -0.01233897	      0.02702822	     -0.03025986	     -0.02316705	      0.01431153	     -0.00726069	     -0.01536076	      0.03122515	     -0.03781433
      0.03333333	     -0.31868705	      0.13498079	     -0.13498079	      0.31868705	     -0.06452764	      0.52148972	      0.23440604	     -0.23440604	     -0.52148972	      0.06452764	     99.54696874	     75.45199078	     -1.73742236	    -27.71755774	     31.18116520	     63.70166031	      0.27398738	     -0.33749505	      0.31039505	     -0.16874753	     26.45211409	    -18.37208001	    -22.10826635	     -0.73879375	     13.73747552	      8.85576341	     39.28427305	      2.55031414	     30.82433966	     -0.70376831	     16.48417481	     18.41307464	     32.28650502	     -5.79415827	     15.40956483	     22.86510126	     40.04351122	    -13.91030248	     -0.82507363	      5.07839217	      0.00093138	     -0.03117384	     -0.00487565	      0.01597610	     -0.01867052	     -0.00454602	      0.00284317	     -0.06794352	     -0.00518151	      0.01025318	     -0.18292226	     -0.00034315	     -0.00764418	      0.00243109	     -0.00017596	      0.00024992	      0.00009997	      0.00049983	      0.00031989	      0.00095968	      0.00053982	     -0.00000268	     -0.00027257	     -0.00032709	      0.00247315	      0.00867699	      0.00603616	     -0.00809014	      0.01953370	     -0.01852767	      0.00247315	      0.00867699	      0.00603616	      0.00054493	      0.01810849	     -0.00951534	      0.00392078	      0.00482516	      0.01590086	      0.00000000	      0.00761262	      0.00000000	     -0.00708411	     -0.03273781	     -0.00627600	      0.01783138	     -0.00067996	     -0.00641984	     -0.00088027	      0.01475507	     -0.00603616	      0.00243123	      0.02129425	     -0.01760548	     -0.00591041	      0.01278493	     -0.00540740	     -0.01232384	      0.02699507	     -0.03022274	     -0.02313863	      0.01429397	     -0.00725178	     -0.01534192	      0.03118685	     -0.03776795
      0.06666667	     -0.31457207	      0.13323788	     -0.13323788	      0.31457207	     -0.06369445	      0.51475610	      0.23137933	     -0.23137933	     -0.51475610	      0.06369445	    100.54461390	     74.47773392	     -1.75483456	    -32.57033970	     31.73496293	     69.04787734	      0.26734759	     -0.28301537	      0.30432634	     -0.14150768	     26.32017909	    -18.03904631	    -21.05749295	     -0.05602455	     13.26679949	      9.56031729	     39.28858382	      1.13403649	     29.66229858	      0.19910826	     18.70355862	     18.43102552	     34.81502007	     -5.56046962	     11.33073063	     22.55466567	     40.24338860	    -13.84180532	     -1.81857974	      5.13173781	      0.00094969	     -0.03123731	     -0.00488588	      0.01566350	     -0.01882096	     -0.00377760	      0.00244814	     -0.06819895	     -0.00561218	      0.01083495	     -0.18277100	     -0.00027491	     -0.00828573	      0.00269209	     -0.00029076	      0.00022249	      0.00008900	      0.00044498	      0.00028479	      0.00085436	      0.00048058	     -0.00000242	     -0.00027314	     -0.00032777	      0.00244122	      0.00856495	      0.00595822	     -0.00798567	      0.01928147	     -0.01828844	      0.00244122	      0.00856495	      0.00595822	      0.00053790	      0.01787467	     -0.00939248	      0.00388347	      0.00476286	      0.01580789	      0.00000000	      0.00741602	      0.00000000	     -0.00699264	     -0.03231509	     -0.00611273	      0.01997335	     -0.00084574	     -0.00878943	     -0.00086891	      0.01456455	     -0.00595822	      0.00239984	      0.02101929	     -0.01737815	     -0.00583409	      0.01261985	     -0.00533758	     -0.01216471	      0.02664650	     -0.02983250	     -0.02283986	      0.01410940	     -0.00715814	     -0.01514382	      0.03078416	     -0.03728027
      0.10000000	     -0.31439190	      0.13316157	     -0.13316157	      0.31439190	     -0.06365796	      0.51446128	      0.23124680	     -0.23124680	     -0.51446128	      0.06365796	    100.61033230	     74.43507722	     -1.75598156	    -32.76714178	     31.60100776	     68.86906989	      0.26628175	     -0.28033899	      0.30334479	     -0.14016949	     26.49464536	    -17.86715442	    -20.96254088	     -0.03290184	     13.02209174	      9.65604329	     39.16145309	      1.09815868	     29.41677220	      0.16855102	     18.66272828	     18.42406231	     35.19799781	     -5.97048675	     11.41556379	     22.56371266	     40.27956017	    -13.93374699	     -1.84004925	      5.12322541	      0.00094526	     -0.03122196	     -0.00488340	      0.01567501	     -0.01878457	     -0.00380394	      0.00246135	     -0.06819040	     -0.00559777	      0.01081535	     -0.18277619	     -0.00027754	     -0.00826427	      0.00268322	     -0.00028668	      0.00022101	      0.00008840	      0.00044202	      0.00028289	      0.00084868	      0.00047738	     -0.00000276	     -0.00027239	     -0.00032687	      0.00243982	      0.00856004	      0.00595481	     -0.00798110	      0.01927043	     -0.01827796	      0.00243982	      0.00856004	      0.00595481	      0.00053759	      0.01786443	     -0.00938710	      0.00388183	      0.00476013	      0.01580376	      0.00000000	      0.00740747	      0.00000000	     -0.00698863	     -0.03229658	     -0.00610563	      0.02005350	     -0.00085260	     -0.00889144	     -0.00086841	      0.01455621	     -0.00595481	      0.00239847	      0.02100725	     -0.01736820	     -0.00583075	      0.01261262	     -0.00533452	     -0.01215774	      0.02663124	     -0.02981541	     -0.02282678	      0.01410132	     -0.00715404	     -0.01513515	      0.03076652	     -0.03725892
